<?xml version="1.0" standalone="no"?>
<!DOCTYPE svg PUBLIC "-//W3C//DTD SVG 20010904//EN"
 "http://www.w3.org/TR/2001/REC-SVG-20010904/DTD/svg10.dtd">
<svg version="1.0" xmlns="http://www.w3.org/2000/svg"
 width="200.000000pt" height="200.000000pt" viewBox="0 0 200.000000 200.000000"
 preserveAspectRatio="xMidYMid meet">
<metadata>
Created by potrace 1.14, written by Peter Selinger 2001-2017
</metadata>
<g transform="translate(0.000000,200.000000) scale(0.100000,-0.100000)"
fill="#000000" stroke="none">
<path d="M888 1925 c-1 -2 -21 -6 -43 -9 -75 -12 -160 -39 -245 -78 -46 -21
-87 -42 -90 -46 -3 -4 -25 -20 -50 -36 -71 -46 -240 -224 -240 -253 0 -6 -4
-13 -9 -15 -8 -3 -68 -126 -89 -183 -34 -91 -45 -166 -46 -290 0 -149 6 -200
41 -305 52 -156 111 -248 238 -375 119 -120 268 -201 445 -241 89 -20 124 -23
230 -20 69 3 136 8 150 11 107 29 167 52 248 92 50 25 92 50 92 54 0 4 10 11
22 15 20 6 163 143 198 189 81 107 142 246 176 400 13 60 12 260 -1 331 -16
84 -48 180 -83 249 -28 56 -82 138 -94 143 -4 2 -8 9 -8 16 0 17 -141 149
-207 194 -158 107 -334 160 -528 160 -57 0 -105 -1 -107 -3z"/>
</g>
</svg>
